HIERARCHY
ROOT hip
{
  OFFSET 0 0 0
  CHANNELS 6 Xposition Yposition Zposition Zrotation Yrotation Xrotation
  JOINT abdomen
  {
    OFFSET 0 20.6881 -0.73152
    CHANNELS 3 Zrotation Xrotation Yrotation
    JOINT chest
    {
      OFFSET 0 11.7043 -0.48768
      CHANNELS 3 Zrotation Xrotation Yrotation
      JOINT neck
      {
        OFFSET 0 22.1894 -2.19456
        CHANNELS 3 Zrotation Xrotation Yrotation
        JOINT head
        {
          OFFSET -0.24384 7.07133 1.2192
          CHANNELS 3 Zrotation Xrotation Yrotation
          JOINT leftEye
          {
            OFFSET 4.14528 8.04674 8.04672
            CHANNELS 3 Zrotation Xrotation Yrotation
            End Site
            {
              OFFSET 1 0 0
            }
          }
          JOINT rightEye
          {
            OFFSET -3.6576 8.04674 8.04672
            CHANNELS 3 Zrotation Xrotation Yrotation
            End Site
            {
              OFFSET 1 0 0
            }
          }
        }
      }
      JOINT rCollar
      {
        OFFSET -2.68224 19.2634 -4.8768
        CHANNELS 3 Zrotation Xrotation Yrotation
        JOINT rShldr
        {
          OFFSET -8.77824 -1.95073 1.46304
          CHANNELS 3 Zrotation Xrotation Yrotation
          JOINT rForeArm
          {
            OFFSET -28.1742 -1.7115 0.48768
            CHANNELS 3 Zrotation Xrotation Yrotation
            JOINT rHand
            {
              OFFSET -22.5879 0.773209 7.07136
              CHANNELS 3 Zrotation Xrotation Yrotation
              JOINT rThumb1
              {
                OFFSET -1.2192 -0.487915 3.41376
                CHANNELS 3 Zrotation Xrotation Yrotation
                JOINT rThumb2
                {
                  OFFSET -3.37035 -0.52449 3.41376
                  CHANNELS 3 Zrotation Xrotation Yrotation
                  End Site
                  {
                    OFFSET -1.78271 -1.18214 1.43049
                  }
                }
              }
              JOINT rIndex1
              {
                OFFSET -7.75947 0.938293 5.60832
                CHANNELS 3 Zrotation Xrotation Yrotation
                JOINT rIndex2
                {
                  OFFSET -2.54057 -0.884171 1.56538
                  CHANNELS 3 Zrotation Xrotation Yrotation
                  End Site
                  {
                    OFFSET -1.62519 -0.234802 1.16502
                  }
                }
              }
              JOINT rMid1
              {
                OFFSET -8.24714 1.18213 3.41376
                CHANNELS 3 Zrotation Xrotation Yrotation
                JOINT rMid2
                {
                  OFFSET -3.10165 -0.590103 1.0647
                  CHANNELS 3 Zrotation Xrotation Yrotation
                  End Site
                  {
                    OFFSET -2.48547 -0.328903 0.83742
                  }
                }
              }
              JOINT rRing1
              {
                OFFSET -8.82822 0.546677 1.51678
                CHANNELS 3 Zrotation Xrotation Yrotation
                JOINT rRing2
                {
                  OFFSET -2.60934 -0.819778 -0.0198488
                  CHANNELS 3 Zrotation Xrotation Yrotation
                  End Site
                  {
                    OFFSET -2.33842 -0.294052 0.168128
                  }
                }
              }
              JOINT rPinky1
              {
                OFFSET -8.27202 -0.0477905 -0.4584
                CHANNELS 3 Zrotation Xrotation Yrotation
                JOINT rPinky2
                {
                  OFFSET -1.82734 -0.647385 -0.700984
                  CHANNELS 3 Zrotation Xrotation Yrotation
                  End Site
                  {
                    OFFSET -1.69225 -0.51767 -0.607171
                  }
                }
              }
            }
          }
        }
      }
      JOINT lCollar
      {
        OFFSET 2.68224 19.2634 -4.8768
        CHANNELS 3 Zrotation Xrotation Yrotation
        JOINT lShldr
        {
          OFFSET 8.77824 -1.95073 1.46304
          CHANNELS 3 Zrotation Xrotation Yrotation
          JOINT lForeArm
          {
            OFFSET 28.1742 -1.7115 0.48768
            CHANNELS 3 Zrotation Xrotation Yrotation
            JOINT lHand
            {
              OFFSET 22.5879 0.773209 7.07136
              CHANNELS 3 Zrotation Xrotation Yrotation
              JOINT lThumb1
              {
                OFFSET 1.2192 -0.487915 3.41376
                CHANNELS 3 Zrotation Xrotation Yrotation
                JOINT lThumb2
                {
                  OFFSET 3.37035 -0.52449 3.41376
                  CHANNELS 3 Zrotation Xrotation Yrotation
                  End Site
                  {
                    OFFSET 1.78271 -1.18214 1.43049
                  }
                }
              }
              JOINT lIndex1
              {
                OFFSET 7.75947 0.938293 5.60832
                CHANNELS 3 Zrotation Xrotation Yrotation
                JOINT lIndex2
                {
                  OFFSET 2.54057 -0.884171 1.56538
                  CHANNELS 3 Zrotation Xrotation Yrotation
                  End Site
                  {
                    OFFSET 1.62519 -0.234802 1.16502
                  }
                }
              }
              JOINT lMid1
              {
                OFFSET 8.24714 1.18213 3.41376
                CHANNELS 3 Zrotation Xrotation Yrotation
                JOINT lMid2
                {
                  OFFSET 3.10165 -0.590103 1.0647
                  CHANNELS 3 Zrotation Xrotation Yrotation
                  End Site
                  {
                    OFFSET 2.48547 -0.328903 0.83742
                  }
                }
              }
              JOINT lRing1
              {
                OFFSET 8.82822 0.546677 1.51678
                CHANNELS 3 Zrotation Xrotation Yrotation
                JOINT lRing2
                {
                  OFFSET 2.60934 -0.819778 -0.0198488
                  CHANNELS 3 Zrotation Xrotation Yrotation
                  End Site
                  {
                    OFFSET 2.33842 -0.294052 0.168128
                  }
                }
              }
              JOINT lPinky1
              {
                OFFSET 8.27202 -0.0477905 -0.4584
                CHANNELS 3 Zrotation Xrotation Yrotation
                JOINT lPinky2
                {
                  OFFSET 1.82734 -0.647385 -0.700984
                  CHANNELS 3 Zrotation Xrotation Yrotation
                  End Site
                  {
                    OFFSET 1.69225 -0.51767 -0.607171
                  }
                }
              }
            }
          }
        }
      }
    }
  }
  JOINT rButtock
  {
    OFFSET -8.77824 4.35084 1.2192
    CHANNELS 3 Zrotation Xrotation Yrotation
    JOINT rThigh
    {
      OFFSET 0 -1.70687 -2.19456
      CHANNELS 3 Zrotation Xrotation Yrotation
      JOINT rShin
      {
        OFFSET 0 -36.8199 0.73152
        CHANNELS 3 Zrotation Xrotation Yrotation
        JOINT rFoot
        {
          OFFSET 0.73152 -45.1104 -5.12064
          CHANNELS 3 Zrotation Xrotation Yrotation
          End Site
          {
            OFFSET -1.1221 -3.69964 12.103
          }
        }
      }
    }
  }
  JOINT lButtock
  {
    OFFSET 8.77824 4.35084 1.2192
    CHANNELS 3 Zrotation Xrotation Yrotation
    JOINT lThigh
    {
      OFFSET 0 -1.70687 -2.19456
      CHANNELS 3 Zrotation Xrotation Yrotation
      JOINT lShin
      {
        OFFSET 0 -36.8199 0.73152
        CHANNELS 3 Zrotation Xrotation Yrotation
        JOINT lFoot
        {
          OFFSET -0.73152 -45.1104 -5.12064
          CHANNELS 3 Zrotation Xrotation Yrotation
          End Site
          {
            OFFSET 1.1221 -3.69964 12.103
          }
        }
      }
    }
  }
}
MOTION
Frames:	9
Frame Time:	0.00833333
38.2691 83.6007 2.01678 -20.886 -69.6475 26.778 0.296058 -4.03804 13.0878 -2.68061 0.13515 3.66108 3.74055 4.98143 3.8081 12.4951 43.1557 -2.07847 -0.0 0.0 0.0 -0.0 0.0 0.0 2.93425e-13 -1.36769e-13 -3.17956e-13 80.0441 7.20137 -9.172 -24.1675 -19.4131 50.1434 -1.74225 -34.6684 -5.57799 -3.32388e-09 2.0444e-09 -7.00131e-09 -5.52573e-09 3.52972e-09 -1.21777e-08 -3.32388e-09 2.04441e-09 -7.00132e-09 7.73091 5.47488 0.417314 -3.32388e-09 2.04441e-09 -7.00131e-09 2.90554 0.965183 0.102902 -3.32388e-09 2.04441e-09 -7.00131e-09 10.2786 0.731801 0.0259123 -3.32388e-09 2.04441e-09 -7.0013e-09 2.22167 -0.733487 -0.20892 2.93357e-13 -1.3676e-13 -3.18105e-13 -81.1256 19.1817 8.71824 24.5536 -20.1692 -51.4114 0.0155895 3.56234 -0.501307 -4.73992e-09 1.56702e-09 2.55606e-09 -8.1828e-09 2.67523e-09 4.40785e-09 -4.73992e-09 1.56704e-09 2.55608e-09 -7.73091 5.47488 -0.417314 -4.73992e-09 1.56704e-09 2.55607e-09 -2.90554 0.965183 -0.102902 -4.73992e-09 1.56702e-09 2.55606e-09 -10.2786 0.731801 -0.0259123 -4.73992e-09 1.56702e-09 2.55606e-09 -2.22167 -0.733487 0.20892 -2.03217e-16 0.0 -3.88251e-19 4.21807 -12.8118 2.3049 -0.133339 19.9024 0.302218 -6.01575 -4.43678 -30.4459 2.03217e-16 0.0 3.88251e-19 15.7975 -20.4593 -10.8797 0.0088057 19.3541 -0.17297 0.316604 -4.65833 0.740639
38.3989 83.62 2.19261 -20.6115 -69.7022 26.6147 0.490567 -4.06204 12.8414 -2.35535 0.0889764 3.58799 3.72131 4.90596 3.77967 14.1062 42.7571 -2.73941 -0.0 0.0 0.0 -0.0 0.0 0.0 3.06502e-13 2.18711e-14 -3.14961e-13 79.8153 6.99378 -9.0897 -24.1606 -19.4 50.1212 -1.74145 -34.6617 -5.57659 -3.04115e-09 1.8265e-09 -6.12066e-09 -5.06312e-09 3.15472e-09 -1.06503e-08 -3.04115e-09 1.8265e-09 -6.12067e-09 7.73091 5.47488 0.417314 -3.04115e-09 1.8265e-09 -6.12066e-09 2.90554 0.965183 0.102902 -3.04115e-09 1.8265e-09 -6.12066e-09 10.2786 0.731801 0.0259123 -3.04115e-09 1.8265e-09 -6.12065e-09 2.22167 -0.733487 -0.20892 3.06458e-13 2.18799e-14 -3.15089e-13 -81.5887 19.2677 9.15187 24.5438 -20.1497 -51.3788 0.0164208 3.65671 -0.514622 -4.16584e-09 6.05722e-10 1.99362e-09 -7.19212e-09 1.01758e-09 3.43713e-09 -4.16584e-09 6.05735e-10 1.99363e-09 -7.73091 5.47488 -0.417314 -4.16584e-09 6.05735e-10 1.99362e-09 -2.90554 0.965183 -0.102902 -4.16584e-09 6.05722e-10 1.99362e-09 -10.2786 0.731801 -0.0259123 -4.16584e-09 6.05721e-10 1.99361e-09 -2.22167 -0.733487 0.20892 -2.03217e-16 0.0 -3.88251e-19 4.07758 -12.8619 2.69347 -0.132304 19.7796 0.300545 -6.06585 -4.40918 -30.764 2.03217e-16 0.0 3.88251e-19 15.5802 -20.637 -10.8026 0.00880804 19.4085 -0.174402 0.306709 -4.65032 0.647893
38.5303 83.6381 2.36898 -20.3004 -69.7387 26.4216 0.66152 -4.09202 12.5669 -2.02143 0.0337778 3.50678 3.71463 4.83015 3.74017 15.6798 42.3063 -3.39454 -0.0 0.0 0.0 -0.0 0.0 0.0 3.40064e-13 3.44317e-13 -2.5815e-13 79.5884 6.78702 -9.00619 -24.1527 -19.3851 50.096 -1.74029 -34.6519 -5.57454 -2.59269e-09 1.33409e-09 -4.4586e-09 -4.33682e-09 2.3063e-09 -7.76831e-09 -2.59268e-09 1.3341e-09 -4.45861e-09 7.73091 5.47488 0.417314 -2.59269e-09 1.3341e-09 -4.45861e-09 2.90554 0.965183 0.102902 -2.59268e-09 1.3341e-09 -4.45861e-09 10.2786 0.731801 0.0259123 -2.59269e-09 1.3341e-09 -4.4586e-09 2.22167 -0.733487 -0.20892 3.4005e-13 3.44323e-13 -2.58259e-13 -82.0513 19.381 9.59015 24.535 -20.1319 -51.3491 0.0173081 3.75494 -0.528486 -3.53471e-09 -5.16623e-10 1.14337e-09 -6.10417e-09 -9.10606e-10 1.972e-09 -3.53471e-09 -5.16612e-10 1.14338e-09 -7.73091 5.47488 -0.417314 -3.53471e-09 -5.16613e-10 1.14338e-09 -2.90554 0.965183 -0.102902 -3.53471e-09 -5.1662e-10 1.14338e-09 -10.2786 0.731801 -0.0259123 -3.53471e-09 -5.16622e-10 1.14337e-09 -2.22167 -0.733487 0.20892 -2.03217e-16 0.0 -3.88251e-19 3.92945 -12.9155 3.07888 -0.131239 19.6648 0.2993 -6.1264 -4.3933 -31.098 2.03217e-16 0.0 3.88251e-19 15.3544 -20.825 -10.7258 0.00886585 19.4637 -0.175671 0.294877 -4.64375 0.538726
38.6632 83.6547 2.54742 -19.948 -69.7554 26.1959 0.811692 -4.12695 12.2721 -1.68393 -0.0290127 3.41994 3.71212 4.75145 3.68722 17.2292 41.7942 -4.04367 -0.0 0.0 0.0 -0.0 0.0 0.0 3.66201e-13 6.67149e-13 -2.10581e-13 79.3679 6.56817 -8.92308 -24.1442 -19.369 50.0689 -1.73872 -34.6387 -5.57178 -2.05826e-09 8.3467e-10 -2.68753e-09 -3.46549e-09 1.44599e-09 -4.69645e-09 -2.05825e-09 8.3467e-10 -2.68754e-09 7.73091 5.47488 0.417314 -2.05826e-09 8.34669e-10 -2.68754e-09 2.90554 0.965183 0.102902 -2.05825e-09 8.3467e-10 -2.68754e-09 10.2786 0.731801 0.0259123 -2.05827e-09 8.34669e-10 -2.68753e-09 2.22167 -0.733487 -0.20892 3.66208e-13 6.6715e-13 -2.10678e-13 -82.5045 19.5265 10.0334 24.5281 -20.1181 -51.326 0.0181339 3.84303 -0.540921 -2.68313e-09 -1.83676e-09 2.2302e-10 -4.63538e-09 -3.18124e-09 3.85234e-10 -2.68313e-09 -1.83675e-09 2.23026e-10 -7.73091 5.47488 -0.417314 -2.68313e-09 -1.83675e-09 2.23024e-10 -2.90554 0.965183 -0.102902 -2.68314e-09 -1.83676e-09 2.23025e-10 -10.2786 0.731801 -0.0259123 -2.68313e-09 -1.83676e-09 2.23018e-10 -2.22167 -0.733487 0.20892 -2.03217e-16 0.0 -3.88251e-19 3.77692 -12.9722 3.45657 -0.130142 19.5565 0.298459 -6.19626 -4.38912 -31.4409 2.03217e-16 0.0 3.88251e-19 15.1243 -21.0214 -10.6509 0.008967 19.5185 -0.176796 0.28146 -4.63833 0.41679
38.7967 83.6697 2.72523 -19.5741 -69.7539 25.9554 0.943887 -4.16585 11.9647 -1.34788 -0.0979608 3.32997 3.70538 4.66732 3.61841 18.7676 41.2115 -4.6864 -0.0 0.0 0.0 -0.0 0.0 0.0 3.56999e-13 8.26944e-13 -2.35311e-13 79.1584 6.32428 -8.84202 -24.1355 -19.3524 50.0409 -1.73672 -34.6218 -5.56827 -1.51763e-09 5.95692e-10 -1.47984e-09 -2.56779e-09 1.03533e-09 -2.59931e-09 -1.51762e-09 5.95691e-10 -1.47984e-09 7.73091 5.47488 0.417314 -1.51763e-09 5.9569e-10 -1.47984e-09 2.90554 0.965183 0.102902 -1.51762e-09 5.95692e-10 -1.47984e-09 10.2786 0.731801 0.0259123 -1.51763e-09 5.9569e-10 -1.47983e-09 2.22167 -0.733487 -0.20892 3.57009e-13 8.26944e-13 -2.35411e-13 -82.9394 19.7091 10.4822 24.5243 -20.1105 -51.3134 0.0187575 3.90694 -0.549946 -1.44771e-09 -3.39144e-09 -5.49743e-10 -2.50215e-09 -5.86624e-09 -9.50379e-10 -1.44771e-09 -3.39144e-09 -5.4974e-10 -7.73091 5.47488 -0.417314 -1.44771e-09 -3.39144e-09 -5.4974e-10 -2.90554 0.965183 -0.102902 -1.44772e-09 -3.39144e-09 -5.49739e-10 -10.2786 0.731801 -0.0259123 -1.4477e-09 -3.39144e-09 -5.49746e-10 -2.22167 -0.733487 0.20892 -2.03217e-16 0.0 -3.88251e-19 3.62318 -13.0317 3.82201 -0.129015 19.4532 0.297998 -6.27426 -4.39662 -31.7861 2.03217e-16 0.0 3.88251e-19 14.8945 -21.2239 -10.5793 0.00909935 19.5715 -0.177796 0.266809 -4.63378 0.285734
38.9305 83.6839 2.9019 -19.1873 -69.7383 25.7068 1.05476 -4.21396 11.6411 -1.01288 -0.171956 3.23576 3.70382 4.57817 3.53313 20.2778 40.5569 -5.32135 -0.0 0.0 0.0 -0.0 0.0 0.0 2.88738e-13 7.2033e-13 -4.12321e-13 78.9588 6.05373 -8.75951 -24.1253 -19.3332 50.0084 -1.73461 -34.604 -5.56454 -8.80145e-10 8.42773e-10 -1.20344e-09 -1.47723e-09 1.4638e-09 -2.11208e-09 -8.80137e-10 8.42771e-10 -1.20344e-09 7.73091 5.47488 0.417314 -8.80143e-10 8.4277e-10 -1.20344e-09 2.90554 0.965183 0.102902 -8.80134e-10 8.42772e-10 -1.20344e-09 10.2786 0.731801 0.0259123 -8.80149e-10 8.4277e-10 -1.20343e-09 2.22167 -0.733487 -0.20892 2.88719e-13 7.20331e-13 -4.1245e-13 -83.355 19.9294 10.9381 24.5237 -20.1093 -51.3113 0.0191596 3.94691 -0.555591 6.95566e-10 -5.66021e-09 -1.15443e-09 1.20183e-09 -9.80225e-09 -2.00297e-09 6.95569e-10 -5.66021e-09 -1.15442e-09 -7.73091 5.47488 -0.417314 6.95568e-10 -5.6602e-09 -1.15442e-09 -2.90554 0.965183 -0.102902 6.9556e-10 -5.66021e-09 -1.15442e-09 -10.2786 0.731801 -0.0259123 6.95571e-10 -5.66021e-09 -1.15443e-09 -2.22167 -0.733487 0.20892 -2.03217e-16 0.0 -3.88251e-19 3.46691 -13.0989 4.17692 -0.127851 19.3568 0.298005 -6.3637 -4.41828 -32.1393 2.03217e-16 0.0 3.88251e-19 14.6619 -21.4379 -10.5139 0.00926591 19.6204 -0.178597 0.250696 -4.62771 0.143723
39.063 83.6973 3.08008 -18.7894 -69.7117 25.4482 1.14391 -4.27 11.2991 -0.676908 -0.252009 3.13659 3.70789 4.48499 3.43265 21.7552 39.8354 -5.9468 -0.0 0.0 0.0 -0.0 0.0 0.0 1.81728e-13 4.54395e-13 -6.86925e-13 78.7675 5.76278 -8.67607 -24.114 -19.3117 49.9722 -1.73229 -34.5843 -5.56046 -1.40571e-10 1.38183e-09 -1.43685e-09 -1.96574e-10 2.39644e-09 -2.50541e-09 -1.40567e-10 1.38183e-09 -1.43685e-09 7.73091 5.47488 0.417314 -1.4057e-10 1.38183e-09 -1.43685e-09 2.90554 0.965183 0.102902 -1.40563e-10 1.38183e-09 -1.43685e-09 10.2786 0.731801 0.0259123 -1.40575e-10 1.38183e-09 -1.43683e-09 2.22167 -0.733487 -0.20892 1.81659e-13 4.54398e-13 -6.87102e-13 -83.7575 20.1846 11.4013 24.5257 -20.1133 -51.3181 0.019383 3.96908 -0.558722 3.4994e-09 -8.46688e-09 -1.69461e-09 6.04843e-09 -1.46784e-08 -2.94885e-09 3.49941e-09 -8.46689e-09 -1.69461e-09 -7.73091 5.47488 -0.417314 3.49941e-09 -8.46687e-09 -1.69461e-09 -2.90554 0.965183 -0.102902 3.4994e-09 -8.46689e-09 -1.69461e-09 -10.2786 0.731801 -0.0259123 3.49941e-09 -8.46687e-09 -1.69462e-09 -2.22167 -0.733487 0.20892 -2.03217e-16 0.0 -3.88251e-19 3.30727 -13.1725 4.52276 -0.126648 19.2674 0.298461 -6.46443 -4.45298 -32.5016 2.03217e-16 0.0 3.88251e-19 14.4257 -21.6626 -10.4529 0.00947003 19.6668 -0.179215 0.23305 -4.62102 -0.0102522
39.1911 83.7097 3.25798 -18.4013 -69.6811 25.1938 1.21878 -4.32308 10.9485 -0.342556 -0.339869 3.03545 3.6957 4.38606 3.31748 23.2314 39.0476 -6.56184 -0.0 0.0 0.0 -0.0 0.0 0.0 7.41128e-14 1.81415e-13 -9.20182e-13 78.5887 5.45039 -8.5994 -24.104 -19.2926 49.94 -1.72913 -34.5576 -5.55489 4.93204e-10 1.8508e-09 -1.66837e-09 9.01675e-10 3.20814e-09 -2.89715e-09 4.93206e-10 1.8508e-09 -1.66837e-09 7.73091 5.47488 0.417314 4.93205e-10 1.8508e-09 -1.66836e-09 2.90554 0.965183 0.102902 4.93211e-10 1.8508e-09 -1.66836e-09 10.2786 0.731801 0.0259123 4.932e-10 1.8508e-09 -1.66835e-09 2.22167 -0.733487 -0.20892 7.39894e-14 1.81422e-13 -9.20406e-13 -84.1484 20.4746 11.8694 24.5306 -20.1231 -51.3345 0.0193709 3.96835 -0.558619 5.97025e-09 -1.08646e-08 -2.13872e-09 1.03195e-08 -1.88454e-08 -3.72748e-09 5.97025e-09 -1.08646e-08 -2.13871e-09 -7.73091 5.47488 -0.417314 5.97025e-09 -1.08646e-08 -2.13872e-09 -2.90554 0.965183 -0.102902 5.97025e-09 -1.08646e-08 -2.13872e-09 -10.2786 0.731801 -0.0259123 5.97026e-09 -1.08646e-08 -2.13873e-09 -2.22167 -0.733487 0.20892 -2.03217e-16 0.0 -3.88251e-19 3.14795 -13.2423 4.8546 -0.125411 19.1806 0.299177 -6.57004 -4.49538 -32.8592 2.03217e-16 0.0 3.88251e-19 14.193 -21.8865 -10.3916 0.00970057 19.7143 -0.179805 0.214419 -4.6184 -0.171308
39.3144 83.7208 3.43663 -18.0213 -69.6465 24.9388 1.28713 -4.36227 10.5995 -0.0124215 -0.437283 2.93537 3.64534 4.27969 3.1881 24.7383 38.194 -7.16582 -0.0 0.0 0.0 -0.0 0.0 0.0 4.0338e-15 5.36666e-14 -9.7315e-13 78.4264 5.11558 -8.53717 -24.0976 -19.2806 49.9197 -1.72449 -34.5183 -5.54671 8.13296e-10 1.88762e-09 -1.38628e-09 1.44502e-09 3.27377e-09 -2.40515e-09 8.13298e-10 1.88762e-09 -1.38628e-09 7.73091 5.47488 0.417314 8.13297e-10 1.88762e-09 -1.38627e-09 2.90554 0.965183 0.102902 8.13302e-10 1.88762e-09 -1.38627e-09 10.2786 0.731801 0.0259123 8.13293e-10 1.88762e-09 -1.38625e-09 2.22167 -0.733487 -0.20892 3.8681e-15 5.36755e-14 -9.73399e-13 -84.5295 20.7993 12.3402 24.5386 -20.1393 -51.3614 0.0190733 3.93962 -0.554561 7.11456e-09 -1.19066e-08 -2.45518e-09 1.22971e-08 -2.0654e-08 -4.27834e-09 7.11456e-09 -1.19066e-08 -2.45516e-09 -7.73091 5.47488 -0.417314 7.11456e-09 -1.19066e-08 -2.45517e-09 -2.90554 0.965183 -0.102902 7.11456e-09 -1.19066e-08 -2.45517e-09 -10.2786 0.731801 -0.0259123 7.11457e-09 -1.19066e-08 -2.45518e-09 -2.22167 -0.733487 0.20892 -2.03217e-16 0.0 -3.88251e-19 2.99241 -13.2984 5.16743 -0.124145 19.0921 0.299966 -6.67396 -4.54029 -33.1984 2.03217e-16 0.0 3.88251e-19 13.9711 -22.0978 -10.3248 0.00994712 19.7669 -0.180519 0.195297 -4.62454 -0.334564
